<svg width="112" height="112" viewBox="0 0 112 112" fill="none" xmlns="http://www.w3.org/2000/svg">
<rect width="112" height="112" fill="#F7BF23"/>
<path d="M44.8951 69.8252H52.9214L66.3449 51.3895C68.5405 51.3893 70.7359 51.3894 72.9315 51.3895H72.9316L76.5626 51.3896C78.9298 51.3896 81.3301 49.8434 81.3301 47.4127C81.3301 44.9821 78.9298 43.4358 76.5626 43.4358L71.1563 43.4357L66.3449 43.4356L52.9214 25H44.8951L53.7199 43.4356H41.0994L38.8621 40.4859H31L34.726 47.4127L31 54.3393H38.8621L41.0994 51.3896H53.7198L44.8951 69.8252Z" fill="#1E1E1E"/>
<path d="M41.2331 84.1553L40.6228 86.9998H31.4319L34.314 73.4528H37.7501L35.4782 84.1553H41.2331Z" fill="#1E1E1E"/>
<path d="M54.7534 79.7616L54.4342 81.4421C54.0712 83.3573 53.3045 84.8218 52.1341 85.8357C50.9638 86.8434 49.4617 87.3472 47.6278 87.3472C46.445 87.3472 45.4091 87.1062 44.5204 86.6243C43.6379 86.1424 42.9526 85.4665 42.4644 84.5965C41.9825 83.7265 41.7415 82.7095 41.7415 81.5454C41.7415 80.5565 41.8573 79.6333 42.0889 78.7759C42.3267 77.9184 42.6678 77.1423 43.1122 76.4476C43.5565 75.7467 44.0885 75.1489 44.7082 74.6545C45.3278 74.1538 46.0225 73.772 46.7923 73.5092C47.5684 73.24 48.4008 73.1055 49.2895 73.1055C50.0781 73.1055 50.8135 73.2213 51.4957 73.4528C52.1779 73.6844 52.7757 74.0067 53.2889 74.4198C53.8083 74.8329 54.2152 75.3117 54.5093 75.8562C54.8097 76.3944 54.9631 76.9765 54.9693 77.6024C54.9756 77.6462 54.9756 77.6994 54.9693 77.762C54.9693 77.8183 54.9662 77.8652 54.96 77.9028H51.646C51.6334 77.5335 51.5145 77.2049 51.2892 76.917C51.0639 76.6291 50.7635 76.4038 50.3879 76.2411C50.0124 76.0721 49.5837 75.9876 49.1018 75.9876C48.5448 75.9876 48.0284 76.1222 47.5527 76.3913C47.0833 76.6542 46.6765 77.0297 46.3323 77.5179C45.9881 77.9998 45.7189 78.5662 45.5249 79.2171C45.3372 79.868 45.2433 80.5784 45.2433 81.3482C45.2433 81.9866 45.3497 82.5405 45.5625 83.0099C45.7815 83.4731 46.0913 83.8329 46.4919 84.0895C46.8924 84.3399 47.3681 84.4651 47.9189 84.4651C48.4321 84.4651 48.8952 84.3743 49.3083 84.1928C49.7277 84.0113 50.075 83.7547 50.3504 83.423C50.632 83.085 50.8167 82.697 50.9043 82.2589L50.9325 82.1368H48.4916L48.9985 79.7616H54.7534Z" fill="#1E1E1E"/>
<path d="M57.5338 86.9998H54.2292L57.1113 73.4528H59.5804L63.7769 81.4045H63.9365L65.6263 73.4528H68.9403L66.0582 86.9998H63.6173L59.3645 79.1138H59.2049L57.5338 86.9998Z" fill="#1E1E1E"/>
<path d="M67.2332 86.9998L67.7026 84.8124L75.6261 76.3913V76.2223H69.6178L70.2092 73.4528H80.5643L80.0949 75.6403L72.1807 84.0614L72.1713 84.2304H78.4801L77.8981 86.9998H67.2332Z" fill="#1E1E1E"/>
</svg>
