<svg width="112" height="112" viewBox="0 0 112 112" fill="none" xmlns="http://www.w3.org/2000/svg">
<rect width="112" height="112" fill="#1D1C1A"/>
<path d="M80.803 36.2646L50.7323 43.7463C49.4353 44.0712 48.5034 44.0807 47.1968 43.7941L35.841 41.281C34.7266 41.0326 34.0445 40.5548 33.4296 39.5993L29.3946 33.2833L28.9238 31.4296L31.1047 30.885C32.2095 30.6079 33.0357 30.7321 34.0157 31.315L41.9705 36.0639L51.2895 33.742L41.9705 28.1809L41.4997 26.3271L45.7653 25.2665C47.4082 24.8556 48.6187 24.913 50.2135 25.4863L64.3362 30.5028L69.7546 29.1555C72.4543 28.4866 74.4526 28.6395 77.0273 29.7097L81.1584 31.4392C83.6948 32.4998 83.4354 35.6052 80.7838 36.255L80.803 36.2646Z" fill="#F7BF26"/>
<path d="M100 57.1746L10.9998 57.1746L11.8475 54H100.848L100 57.1746Z" fill="#F7BF26"/>
<path d="M77.7241 87.0239L78.3981 83.8189L89.9254 71.3288L89.9391 71.2325H81.218L82.0847 67.1746H97.037L96.363 70.3796L84.822 82.8697V82.966H93.9833L93.1304 87.0239H77.7241Z" fill="white"/>
<path d="M60.8753 87.0239H56.0195L60.2425 67.1746H64.2041L70.064 79.307H70.1603L72.7189 67.1746H77.5746L73.3516 87.0239H69.39L63.5301 74.8915H63.4338L60.8753 87.0239Z" fill="white"/>
<path d="M46.2131 87.0239H40.0369L37.7534 67.1746H43.2969L44.081 81.7693H44.1773L51.0551 67.1746H56.7637L46.2131 87.0239Z" fill="white"/>
<path d="M28.0022 71.6039L24.2194 79.0319H28.6625L28.1122 71.6039H28.0022ZM29.1989 87.0239L28.8688 82.6634H22.3899L20.1477 87.0239H14.8105L25.8701 67.1746H32.0463L34.3298 87.0239H29.1989Z" fill="white"/>
</svg>
