<svg xmlns="http://www.w3.org/2000/svg" width="755" height="221" fill="none"><path fill="#000" d="m91.204 31.673-15.471 30.38h18.171l-2.25-30.38h-.45Zm4.895 63.067-1.35-17.834H68.25L59.08 94.74H37.25l45.234-81.183h25.26l9.34 81.183H96.099Zm53.456 0h-25.261l-9.339-81.183h22.672l3.207 59.692h.394l28.13-59.692h23.348L149.555 94.74Z"/><path fill="#000" d="m232.659 78.144-3.488 16.596H173.53l17.272-81.183h55.585l-3.545 16.597h-34.937l-3.432 16.203h32.856l-3.207 15.19h-32.856l-3.544 16.597h34.937Zm18.575 16.596h-19.86l17.272-81.183h16.203l23.967 49.62h.394l10.464-49.62h19.86L302.262 94.74h-16.203l-23.967-49.62h-.394l-10.464 49.62Z"/><path fill="#000" d="M346.041 94.74h-20.647l13.671-64.586h-23.348l3.544-16.597h67.4l-3.545 16.597h-23.348L346.041 94.74Z"/><path fill="#000" d="M408.499 96.147c-6.902 0-12.828-1.163-17.779-3.49-4.951-2.324-8.757-5.512-11.42-9.563-2.626-4.05-3.939-8.682-3.939-13.896 0-1.125.057-2.27.169-3.432.113-1.2.3-2.4.563-3.6l10.295-48.61h20.648l-10.183 48.272a39.75 39.75 0 0 0-.45 2.7c-.113.826-.15 1.632-.113 2.42.038 2.4.619 4.482 1.744 6.245 1.125 1.725 2.682 3.056 4.67 3.994 2.025.938 4.351 1.407 6.976 1.407 2.738 0 5.157-.525 7.257-1.576 2.101-1.087 3.864-2.681 5.289-4.782 1.425-2.1 2.457-4.65 3.094-7.651l10.802-51.028h20.704l-11.759 55.529c-1.2 5.663-3.488 10.52-6.863 14.57-3.338 4.014-7.558 7.108-12.659 9.284-5.063 2.138-10.745 3.207-17.046 3.207Zm34.89-1.407 17.271-81.183h34.6c5.551 0 10.277 1.032 14.178 3.094 3.9 2.026 6.863 4.8 8.889 8.327 2.063 3.525 3.094 7.576 3.094 12.152 0 3.938-.769 7.708-2.307 11.308-1.537 3.563-3.769 6.733-6.694 9.508-2.926 2.776-6.508 4.895-10.746 6.358l9.564 30.436h-21.547l-8.327-28.411h.45-11.702l-6.02 28.41h-20.703Zm34.656-65.6-4.895 22.618h12.771c2.963 0 5.551-.544 7.764-1.632 2.213-1.088 3.919-2.607 5.12-4.557 1.2-1.95 1.8-4.182 1.8-6.695 0-3.188-.956-5.607-2.869-7.257-1.913-1.65-4.632-2.476-8.158-2.476h-11.533Z"/><path fill="#000" d="m559.237 31.673-15.472 30.38h18.172l-2.25-30.38h-.45Zm4.894 63.067-1.35-17.834h-26.498l-9.171 17.834h-21.828l45.232-81.183h25.261l9.339 81.183h-20.985ZM31.783 201.619H17l12.856-60.429h12.061l17.84 36.936h.293l7.789-36.936h14.783l-12.857 60.429h-12.06l-17.84-36.936h-.293l-7.79 36.936h.001Zm78.727 1.047c-5.137 0-9.548-.866-13.233-2.597-3.685-1.731-6.519-4.104-8.501-7.119-1.954-3.015-2.931-6.463-2.931-10.343 0-.838.041-1.689.125-2.555.084-.893.224-1.787.419-2.68l7.664-36.182h15.369l-7.58 35.931a29.04 29.04 0 0 0-.335 2.01c-.084.614-.112 1.214-.084 1.8.028 1.787.461 3.337 1.298 4.649.838 1.284 1.996 2.275 3.476 2.973 1.508.698 3.238 1.047 5.193 1.047 2.038 0 3.839-.391 5.402-1.172 1.563-.81 2.875-1.997 3.936-3.56s1.829-3.462 2.304-5.695l8.04-37.983h15.411l-8.752 41.333c-.894 4.215-2.597 7.831-5.109 10.846-2.485 2.987-5.626 5.291-9.423 6.91-3.769 1.591-7.998 2.387-12.689 2.387Zm78.56-13.401-2.596 12.354h-41.417l12.857-60.429h41.375l-2.639 12.354h-26.006l-2.554 12.06h24.456l-2.387 11.307h-24.456l-2.638 12.354h26.005Zm41.96 12.354h-18.803l-6.952-60.429h16.877l2.387 44.432h.293l20.939-44.432h17.379l-32.12 60.429Zm55.444-46.945-11.517 22.614h13.527l-1.675-22.614h-.335Zm3.643 46.945-1.005-13.275h-19.724l-6.826 13.275h-16.249l33.67-60.429h18.803l6.951 60.429h-15.62Zm40.995 0 2.052-9.758 35.093-38.024.042-.293h-26.551l2.639-12.354h45.52l-2.052 9.757-35.135 38.025v.293h27.891l-2.597 12.354h-46.902Zm100.797-12.354-2.597 12.354h-41.417l12.857-60.429h41.375l-2.639 12.354h-26.005l-2.555 12.06h24.456l-2.387 11.307h-24.456l-2.638 12.354h26.006Zm51.339-.335-2.68 12.689h-41.039l12.856-60.429h15.369l-10.134 47.74h25.628Zm41.457-34.256-11.516 22.614h13.526l-1.675-22.614h-.335Zm3.644 46.945-1.005-13.275h-19.725l-6.826 13.275h-16.248l33.669-60.429h18.803l6.952 60.429h-15.62Zm37.52 0h-14.783l12.857-60.429h12.06l17.84 36.936h.293l7.789-36.936h14.783l-12.856 60.429h-12.061l-17.84-36.936h-.293l-7.789 36.936Zm62.27-60.429h23.326c4.829 0 9.073.935 12.73 2.806 3.685 1.842 6.547 4.509 8.585 7.998 2.066 3.49 3.099 7.706 3.099 12.647 0 5.416-.768 10.372-2.303 14.867-1.508 4.494-3.685 8.403-6.533 11.725a29.375 29.375 0 0 1-10.134 7.664c-3.937 1.815-8.292 2.722-13.066 2.722h-28.56l12.856-60.429Zm12.856 12.312-7.58 35.805h8.334c2.68 0 5.137-.53 7.37-1.591 2.234-1.061 4.16-2.583 5.779-4.565 1.648-1.982 2.918-4.369 3.811-7.161.922-2.792 1.382-5.933 1.382-9.422 0-2.708-.474-5.04-1.424-6.994-.949-1.954-2.331-3.448-4.145-4.481-1.787-1.061-3.979-1.591-6.575-1.591h-6.952Zm71.274 1.172-11.517 22.614h13.527l-1.675-22.614h-.335Zm3.643 46.945-1.005-13.275h-19.724l-6.826 13.275h-16.249l33.67-60.429h18.803l6.951 60.429h-15.62ZM733.631 120.619H186.234l3.084-11.55h547.397l-3.084 11.55Zm-561.289 0H35.77l3.084-11.55h136.573l-3.085 11.55Zm559.819-60.95L663.55 76.724c-2.959.74-5.085.762-8.066.11l-25.91-5.73c-2.543-.567-4.099-1.656-5.502-3.834l-9.207-14.4-1.074-4.225 4.976-1.242c2.521-.632 4.406-.348 6.642.98l18.15 10.827 21.263-5.294-21.263-12.678-1.074-4.226 9.733-2.418c3.748-.936 6.51-.806 10.149.501l32.223 11.437 12.363-3.072c6.159-1.524 10.719-1.176 16.593 1.264l9.426 3.943c5.787 2.418 5.195 9.497-.855 10.98l.044.02Z"/></svg>