<svg width="1257" height="348" viewBox="0 0 1257 348" fill="none" xmlns="http://www.w3.org/2000/svg">
<g clip-path="url(#clip0_1212_374)">
<path d="M265.3 60.6999L235.3 119.9H270.6L266.2 60.6999H265.3ZM784.7 58.3999L754 118.7H790L785.6 58.3999H784.7Z" fill="black"/>
<path fill-rule="evenodd" clip-rule="evenodd" d="M896.7 0H71.2001L29.6001 203.4H858.9L896.7 0ZM674.6 183.7H633.4L668 22.4H709L674.6 183.7ZM531.9 176.4C542.792 181.186 554.607 183.508 566.5 183.2C578.8 183.2 589.8 181.2 599.7 177C609.237 173.033 617.675 166.824 624.3 158.9C630.9 151 635.3 141.5 637.7 130.5L660.6 22.5H620.3L599.3 121.8C598.285 127.109 596.247 132.169 593.3 136.7C590.4 140.7 587 143.8 582.9 146C578.9 148 574.1 149 568.8 149C564.124 149.105 559.482 148.183 555.2 146.3C551.528 144.595 548.41 141.892 546.2 138.5C543.92 134.875 542.707 130.682 542.7 126.4C542.7 124.8 542.7 123.3 542.9 121.7L543.9 116.4L563.6 22.4H523.4L503.4 117.1C502.399 121.562 501.929 126.127 502 130.7C501.832 140.436 504.593 149.998 509.924 158.147C515.255 166.296 522.912 172.655 531.9 176.4ZM500.7 96.1L497.3 114.7C493.3 137.1 484.5 154.2 470.7 166.1C456.007 178.329 437.3 184.671 418.2 183.9C404.2 183.9 392.1 181.1 381.6 175.4C371.384 169.918 362.951 161.624 357.3 151.5C351.431 140.498 348.503 128.166 348.8 115.7C348.737 105.57 350.049 95.4776 352.7 85.7C355.217 76.4462 359.093 67.6168 364.2 59.5C373.963 43.4859 388.986 31.3613 406.7 25.2C415.7 22 425.7 20.4 436.3 20.4C446.2 20.4 455.3 21.8 463.3 24.7C471.004 27.2659 478.185 31.195 484.5 36.3C490.4 41.2 494.9 46.8 498.2 53.2C501.577 59.9225 503.227 67.3803 503 74.9V76.5H464.2C463.941 72.0839 462.482 67.8222 459.98 64.1744C457.478 60.5266 454.027 57.6311 450 55.8C445.8 53.8 440.9 52.8 435.3 52.8C428.1 52.8 421.7 54.4 416.1 57.6C410.383 60.9293 405.493 65.5106 401.8 71C397.8 76.7 394.8 83.2 392.7 90.6C390.7 98 389.7 105.8 389.7 114.1C389.503 120.911 390.729 127.689 393.3 134C395.9 139.6 399.6 144 404.5 147C409.907 150.207 416.117 151.803 422.4 151.6C427.6 151.621 432.739 150.483 437.444 148.269C442.149 146.055 446.302 142.82 449.6 138.8C452.9 134.8 455.1 130.2 456.3 125.1L456.6 123.7H426.7L432.7 96.1H500.7ZM272.2 148.8L274.9 183.5H315.7L297.5 25.5H248.4L178.8 150.3H112.3L138.8 25.4H98.6001L65.0001 183.4H202.8L220.7 148.8H272.2ZM791.7 148.2L794.4 183.7H836L817.5 22.4H767.5L677.8 183.7H721L739.2 148.2H791.7Z" fill="black"/>
<path d="M318.7 295.1L330.4 272.3H330.7L332.4 295.1H318.7ZM580.9 295.1L592.5 272.3H592.9L594.6 295.1H580.9ZM718.6 271L710.9 307.2H719.4C721.943 307.247 724.462 306.714 726.767 305.639C729.072 304.565 731.101 302.978 732.7 301C734.3 299 735.6 296.6 736.5 293.8C737.4 291 737.9 287.8 737.9 284.3C737.9 281.5 737.4 279.2 736.4 277.3C735.4 275.3 734.1 273.7 732.2 272.7C730.4 271.7 728.2 271.1 725.6 271.1H718.6V271ZM794.9 272.3L783.2 295H797L795.3 272.2H795L794.9 272.3Z" fill="black"/>
<path fill-rule="evenodd" clip-rule="evenodd" d="M854.4 227.4L832 347.8H0L24.6 227.4H854.4ZM41 319.7H56L63.8 282.4H64.1L82.1 319.7H94.3L107.3 258.7H92.3L84.5 295.9H84.2L66.2 258.7H54L41 319.7ZM126.4 318.1C130.1 319.8 134.5 320.7 139.7 320.7C144.5 320.7 148.7 319.9 152.5 318.3C156.4 316.7 159.5 314.3 162.1 311.3C164.6 308.3 166.3 304.6 167.2 300.3L176.1 258.7H160.5L152.4 297C151.9 299.3 151.1 301.2 150.1 302.8C149 304.3 147.7 305.5 146.1 306.3C144.388 307.13 142.503 307.542 140.6 307.5C138.6 307.5 136.9 307.2 135.4 306.5C133.973 305.851 132.76 304.81 131.9 303.5C131.033 302.087 130.582 300.458 130.6 298.8V297L131 295L138.6 258.7H123.1L115.4 295.2C114.99 296.936 114.788 298.716 114.8 300.5C114.753 304.257 115.834 307.942 117.901 311.079C119.969 314.216 122.929 316.661 126.4 318.1ZM223.4 307.1L220.8 319.7H178.9L191.9 258.7H233.7L231 271H204.8L202.2 283.2H226.9L224.5 294.6H199.8L197.1 307.1H223.4ZM251.1 319.7H270.1L302.5 258.7H284.9L263.9 303.5H263.5L261.1 258.7H244.1L251.1 319.7ZM334.1 319.7L333.1 306.3H313.1L306.2 319.7H289.8L323.8 258.7H342.8L349.8 319.7H334H334.1ZM386.1 309.8L384.1 319.7H431.4L434.1 307.2H405.9V306.9L441.4 268.5L443.4 258.7H397.5L394.8 271.1H421.6V271.4L386.2 309.8H386.1ZM490.1 307.2L487.6 319.7H445.7L458.7 258.7H500.5L497.8 271.1H471.6L469 283.3H493.7L491.3 294.7H466.6L463.9 307.2H490.2H490.1ZM543.6 319.7L546.3 306.9H520.5L530.7 258.7H515.2L502.2 319.7H543.6ZM596.2 319.7L595.2 306.3H575.2L568.4 319.7H552L586 258.7H605L612 319.7H596.2ZM623.5 319.7H638.5L646.3 282.4H646.6L664.6 319.7H676.8L689.8 258.7H674.8L667 295.9H666.7L648.7 258.7H636.5L623.5 319.7ZM705.6 258.7H729.2C734 258.7 738.3 259.6 742 261.5C745.7 263.4 748.6 266 750.7 269.5C752.7 273.1 753.8 277.3 753.8 282.3C753.8 287.8 753 292.8 751.5 297.3C750.097 301.659 747.855 305.702 744.9 309.2C742.037 312.593 738.447 315.298 734.396 317.116C730.346 318.934 725.938 319.817 721.5 319.7H692.6L705.6 258.7ZM797.6 306.3L798.6 319.7H814.3L807.3 258.7H788.3L754.3 319.7H770.7L777.7 306.3H797.5H797.6ZM856 347.8H1185.4L1256.6 0H920.7L856 347.8ZM1006.3 271.3H1040.8L1098.5 191.2H1142.5C1152.6 191.2 1163 184.4 1163 173.9C1163 163.3 1152.6 156.6 1142.5 156.6H1098.5L1040.8 76.4H1006.3L1044.3 156.6H990L980.4 143.8H946.6L962.6 173.8L946.6 204H980.4L990 191.2H1044.3L1006.3 271.3Z" fill="black"/>
</g>
<defs>
<clipPath id="clip0_1212_374">
<rect width="1257" height="348" fill="white"/>
</clipPath>
</defs>
</svg>
